<svg width="1280" height="832" viewBox="0 0 1280 832" fill="none" xmlns="http://www.w3.org/2000/svg">
<g clip-path="url(#clip0_16_101)">
<rect width="1280" height="832" fill="#EEEEEE"/>
<path opacity="0.7" d="M408.295 649.667C410.015 649.668 411.336 651.112 411.336 652.8C411.336 654.488 410.015 655.933 408.295 655.934C406.574 655.933 405.253 654.488 405.253 652.8C405.253 651.112 406.574 649.667 408.295 649.667ZM871.707 649.667C873.427 649.667 874.749 651.112 874.749 652.8C874.749 654.488 873.428 655.933 871.707 655.934C869.987 655.933 868.666 654.488 868.666 652.8C868.666 651.112 869.987 649.667 871.707 649.667ZM408.295 650.667C407.238 650.667 406.368 651.506 406.264 652.582L406.253 652.8C406.253 653.978 407.168 654.933 408.295 654.934C409.422 654.933 410.336 653.978 410.336 652.8L410.325 652.582C410.221 651.507 409.351 650.667 408.295 650.667ZM871.707 650.667C870.65 650.667 869.781 651.507 869.677 652.582L869.666 652.8C869.666 653.978 870.58 654.933 871.707 654.934C872.834 654.933 873.749 653.978 873.749 652.8L873.738 652.582C873.634 651.506 872.764 650.667 871.707 650.667ZM359.289 632V640.566H394.005V641.566H359.289V645.9H638.98V646.9H359.289V653.333H358.289V646.9H0.000976562V645.9H358.289V641.566H166.381V640.566H358.289V632H359.289ZM921.713 640.566H1113.62V641.566H921.713V645.9H1279.99C1280 645.901 1280 645.923 1280 646.4C1280 646.878 1280 646.899 1279.99 646.9H921.713V653.333H920.713V646.9H638.98C638.98 646.727 638.982 646.553 638.982 646.4C638.982 646.248 638.98 646.074 638.98 645.9H920.713V641.566H885.998V640.566H920.713V632H921.713V640.566ZM405.232 652.3V653.3H359.3V652.3H405.232ZM868.646 652.3V653.3H411.356V652.3H868.646ZM920.702 653.3H874.77V652.3H920.702V653.3ZM163.319 637.934C165.039 637.934 166.36 639.378 166.36 641.066C166.36 642.754 165.039 644.2 163.319 644.2C161.599 644.2 160.277 642.755 160.277 641.066C160.278 639.378 161.599 637.934 163.319 637.934ZM1116.68 637.934C1118.4 637.934 1119.73 639.378 1119.73 641.066C1119.73 642.755 1118.4 644.2 1116.68 644.2C1114.96 644.2 1113.64 642.755 1113.64 641.066C1113.64 639.378 1114.96 637.934 1116.68 637.934ZM163.319 638.934C162.263 638.934 161.393 639.773 161.288 640.849L161.277 641.066C161.277 642.244 162.192 643.2 163.319 643.2C164.446 643.2 165.36 642.244 165.36 641.066L165.35 640.849C165.245 639.773 164.376 638.934 163.319 638.934ZM1116.68 638.934C1115.63 638.934 1114.76 639.773 1114.65 640.849L1114.64 641.066C1114.64 642.244 1115.56 643.2 1116.68 643.2C1117.81 643.2 1118.73 642.244 1118.73 641.066L1118.71 640.849C1118.61 639.773 1117.74 638.934 1116.68 638.934ZM114.312 635.733V641.6H113.312V635.733H114.312ZM395.015 636.267V641.6H394.015V636.267H395.015ZM885.987 641.6H884.987V636.267H885.987V641.6ZM1166.69 641.6H1165.69V635.733H1166.69V641.6ZM160.256 640.566V641.566H114.323V640.566H160.256ZM1165.68 641.566H1119.75V640.566H1165.68V641.566ZM444.021 633.667C445.742 633.668 447.062 635.113 447.062 636.801C447.062 638.489 445.741 639.933 444.021 639.934C442.301 639.934 440.98 638.489 440.979 636.801C440.979 635.112 442.301 633.667 444.021 633.667ZM835.981 633.667C837.702 633.667 839.023 635.112 839.023 636.801C839.023 638.489 837.702 639.933 835.981 639.934C834.261 639.933 832.941 638.489 832.94 636.801C832.94 635.112 834.261 633.667 835.981 633.667ZM444.021 634.667C442.894 634.667 441.979 635.623 441.979 636.801L441.99 637.019C442.095 638.094 442.965 638.934 444.021 638.934C445.078 638.933 445.947 638.094 446.052 637.019L446.062 636.801C446.062 635.623 445.148 634.668 444.021 634.667ZM835.981 634.667C834.854 634.667 833.94 635.623 833.94 636.801L833.951 637.019C834.056 638.094 834.925 638.933 835.981 638.934C837.038 638.933 837.908 638.094 838.013 637.019L838.023 636.801C838.023 635.623 837.109 634.667 835.981 634.667ZM440.958 636.3V637.3H395.025V636.3H440.958ZM832.92 636.3V637.3H447.083V636.3H832.92ZM884.977 637.3H839.044V636.3H884.977V637.3ZM113.302 635.767V636.767H0V635.767H113.302ZM1280 636.767H1166.7V635.767H1280V636.767ZM358.278 632.033V633.033H0.000976562V632.033H358.278ZM1280 633.033H921.724V632.033H1280V633.033Z" fill="#1F6FEB"/>
</g>
<defs>
<clipPath id="clip0_16_101">
<rect width="1280" height="832" fill="white"/>
</clipPath>
</defs>
</svg>
